<svg width="667" height="213" viewBox="0 0 667 213" fill="none" xmlns="http://www.w3.org/2000/svg">
<path d="M212.925 149.052C207.357 149.052 202.493 147.74 198.333 145.116C194.237 142.428 191.421 138.812 189.885 134.268L199.293 129.756C200.637 132.7 202.493 135.004 204.861 136.668C207.293 138.332 209.981 139.164 212.925 139.164C215.229 139.164 217.053 138.652 218.397 137.628C219.741 136.604 220.413 135.26 220.413 133.596C220.413 132.572 220.125 131.74 219.549 131.1C219.037 130.396 218.301 129.82 217.341 129.372C216.445 128.86 215.453 128.444 214.365 128.124L205.821 125.724C201.405 124.444 198.045 122.492 195.741 119.868C193.501 117.244 192.381 114.14 192.381 110.556C192.381 107.356 193.181 104.572 194.781 102.204C196.445 99.7724 198.717 97.8844 201.597 96.5404C204.541 95.1964 207.901 94.5244 211.677 94.5244C216.605 94.5244 220.957 95.7084 224.733 98.0764C228.509 100.444 231.197 103.772 232.797 108.06L223.197 112.572C222.301 110.204 220.797 108.316 218.685 106.908C216.573 105.5 214.205 104.796 211.581 104.796C209.469 104.796 207.805 105.276 206.589 106.236C205.373 107.196 204.765 108.444 204.765 109.98C204.765 110.94 205.021 111.772 205.533 112.476C206.045 113.18 206.749 113.756 207.645 114.204C208.605 114.652 209.693 115.068 210.909 115.452L219.261 117.948C223.549 119.228 226.845 121.148 229.149 123.708C231.517 126.268 232.701 129.404 232.701 133.116C232.701 136.252 231.869 139.036 230.205 141.468C228.541 143.836 226.237 145.692 223.293 147.036C220.349 148.38 216.893 149.052 212.925 149.052ZM258.206 149.052C254.558 149.052 251.39 148.444 248.702 147.228C246.014 146.012 243.934 144.284 242.462 142.044C240.99 139.74 240.254 137.084 240.254 134.076C240.254 131.196 240.894 128.636 242.174 126.396C243.454 124.092 245.438 122.172 248.126 120.636C250.814 119.1 254.206 118.012 258.302 117.372L275.39 114.588V124.188L260.702 126.684C258.206 127.132 256.35 127.932 255.134 129.084C253.918 130.236 253.31 131.74 253.31 133.596C253.31 135.388 253.982 136.828 255.326 137.916C256.734 138.94 258.462 139.452 260.51 139.452C263.134 139.452 265.438 138.908 267.422 137.82C269.47 136.668 271.038 135.1 272.126 133.116C273.278 131.132 273.854 128.956 273.854 126.588V113.148C273.854 110.908 272.958 109.052 271.166 107.58C269.438 106.044 267.134 105.276 264.254 105.276C261.566 105.276 259.166 106.012 257.054 107.484C255.006 108.892 253.502 110.78 252.542 113.148L242.27 108.156C243.294 105.404 244.894 103.036 247.07 101.052C249.31 99.0044 251.934 97.4044 254.942 96.2524C257.95 95.1004 261.214 94.5244 264.734 94.5244C269.022 94.5244 272.798 95.3244 276.062 96.9244C279.326 98.4604 281.854 100.636 283.646 103.452C285.502 106.204 286.43 109.436 286.43 113.148V147.9H274.526V138.972L277.214 138.78C275.87 141.02 274.27 142.908 272.414 144.444C270.558 145.916 268.446 147.068 266.078 147.9C263.71 148.668 261.086 149.052 258.206 149.052ZM304.389 169.02C302.981 169.02 301.605 168.892 300.261 168.636C298.917 168.444 297.701 168.06 296.613 167.484V157.02C297.445 157.212 298.437 157.404 299.589 157.596C300.805 157.788 301.925 157.884 302.949 157.884C305.829 157.884 307.909 157.212 309.189 155.868C310.533 154.588 311.717 152.86 312.741 150.684L316.197 142.62L316.005 153.18L293.253 95.6764H306.789L322.725 138.108H317.925L333.765 95.6764H347.397L324.645 153.18C323.301 156.508 321.669 159.356 319.749 161.724C317.829 164.092 315.589 165.884 313.029 167.1C310.533 168.38 307.653 169.02 304.389 169.02ZM354.303 147.9V75.2284H366.879V105.948L365.151 104.124C366.367 100.988 368.351 98.6204 371.103 97.0204C373.919 95.3564 377.183 94.5244 380.895 94.5244C384.735 94.5244 388.127 95.3564 391.071 97.0204C394.079 98.6844 396.415 101.02 398.079 104.028C399.743 106.972 400.575 110.396 400.575 114.3V147.9H387.999V117.276C387.999 114.972 387.551 112.988 386.655 111.324C385.759 109.66 384.511 108.38 382.911 107.484C381.375 106.524 379.551 106.044 377.439 106.044C375.391 106.044 373.567 106.524 371.967 107.484C370.367 108.38 369.119 109.66 368.223 111.324C367.327 112.988 366.879 114.972 366.879 117.276V147.9H354.303ZM435.978 149.052C430.602 149.052 425.898 147.836 421.866 145.404C417.834 142.972 414.698 139.676 412.458 135.516C410.218 131.356 409.098 126.748 409.098 121.692C409.098 116.444 410.218 111.804 412.458 107.772C414.762 103.676 417.866 100.444 421.77 98.0764C425.738 95.7084 430.154 94.5244 435.018 94.5244C439.114 94.5244 442.698 95.1964 445.77 96.5404C448.906 97.8844 451.562 99.7404 453.738 102.108C455.914 104.476 457.578 107.196 458.73 110.268C459.882 113.276 460.458 116.54 460.458 120.06C460.458 120.956 460.394 121.884 460.266 122.844C460.202 123.804 460.042 124.636 459.786 125.34H419.466V115.74H452.682L446.73 120.252C447.306 117.308 447.146 114.684 446.25 112.38C445.418 110.076 444.01 108.252 442.026 106.908C440.106 105.564 437.77 104.892 435.018 104.892C432.394 104.892 430.058 105.564 428.01 106.908C425.962 108.188 424.394 110.108 423.306 112.668C422.282 115.164 421.898 118.204 422.154 121.788C421.898 124.988 422.314 127.836 423.402 130.332C424.554 132.764 426.218 134.652 428.394 135.996C430.634 137.34 433.194 138.012 436.074 138.012C438.954 138.012 441.386 137.404 443.37 136.188C445.418 134.972 447.018 133.34 448.17 131.292L458.346 136.284C457.322 138.78 455.722 140.988 453.546 142.908C451.37 144.828 448.778 146.332 445.77 147.42C442.826 148.508 439.562 149.052 435.978 149.052ZM469.991 147.9V75.2284H482.567V147.9H469.991ZM494.178 147.9V75.2284H506.754V147.9H494.178ZM543.902 149.052C538.782 149.052 534.11 147.868 529.886 145.5C525.726 143.132 522.398 139.9 519.902 135.804C517.47 131.708 516.254 127.036 516.254 121.788C516.254 116.54 517.47 111.868 519.902 107.772C522.398 103.676 525.726 100.444 529.886 98.0764C534.046 95.7084 538.718 94.5244 543.902 94.5244C549.022 94.5244 553.662 95.7084 557.822 98.0764C561.982 100.444 565.278 103.676 567.71 107.772C570.206 111.804 571.454 116.476 571.454 121.788C571.454 127.036 570.206 131.708 567.71 135.804C565.214 139.9 561.886 143.132 557.726 145.5C553.566 147.868 548.958 149.052 543.902 149.052ZM543.902 137.532C546.718 137.532 549.182 136.86 551.294 135.516C553.47 134.172 555.166 132.316 556.382 129.948C557.662 127.516 558.302 124.796 558.302 121.788C558.302 118.716 557.662 116.028 556.382 113.724C555.166 111.356 553.47 109.5 551.294 108.156C549.182 106.748 546.718 106.044 543.902 106.044C541.022 106.044 538.494 106.748 536.318 108.156C534.142 109.5 532.414 111.356 531.134 113.724C529.918 116.028 529.31 118.716 529.31 121.788C529.31 124.796 529.918 127.516 531.134 129.948C532.414 132.316 534.142 134.172 536.318 135.516C538.494 136.86 541.022 137.532 543.902 137.532Z" fill="white"/>
<path d="M128.296 128.498C128.296 128.498 132.99 123.651 139.499 109.578C147.632 91.9956 147.132 84.5986 145.798 79.7803C145.296 77.9697 144.016 76.8542 142.821 76.1137C140.498 74.6751 136.58 78.7221 132.673 81.9768C129.692 84.4605 128.355 89.9247 127.197 91.4309C122.885 97.037 129.694 78.3226 128.296 69.6506C127.88 67.0696 127.058 65.7669 125.982 64.6733C124.87 63.5436 122.959 62.8548 121.012 62.1476C119.378 61.5539 117.773 62.1099 116.329 62.688C112.567 64.1941 110.323 68.453 108.294 71.9414C105.965 75.9444 104.939 79.5022 104.897 80.0343C104.578 84.1105 106.59 71.2142 105.831 65.3141C105.479 62.583 104.077 60.6153 102.866 59.1482C101.817 57.8769 100.197 57.5175 98.7397 57.4012C95.4976 57.1424 93.1884 60.3749 89.8711 64.2093C86.6404 67.9435 85.3309 73.317 85.2834 73.4044C82.6069 78.326 85.3355 63.9678 83.4829 59.8319C82.7168 58.1218 80.8922 57.1997 79.0897 56.6214C75.9156 55.603 72.4982 61.425 69.5342 65.2249C66.9434 68.5466 53.5029 98.8541 51.7665 104.246" stroke="white" stroke-width="9" stroke-linecap="round"/>
<path d="M81.3164 150.674C80.6333 150.473 71.8297 146.476 67.7684 143.982C63.1641 141.155 62.561 139.189 61.1107 137.39C58.7755 134.495 57.6046 132.615 56.401 130.632C53.5133 125.875 52.4468 120.609 51.789 117.956C51.4058 115.613 50.8318 110.521 51.3757 107.866" stroke="white" stroke-width="9" stroke-linecap="round"/>
<path d="M91.2292 123.708C89.9456 121.619 86.1904 115.007 84.8834 112.294C84.4156 111.382 83.6167 109.819 82.854 108.479C82.0913 107.14 81.3891 106.07 80.5365 104.888" stroke="white" stroke-width="9" stroke-linecap="round"/>
<path d="M119.45 129C123.418 129 133.752 129.779 137.089 131.17C138.781 131.875 139.98 133.125 140.841 134.084C142.37 135.784 142.103 139.081 141.126 142.519C140.348 145.254 137.316 147.572 133.576 150.466C128.517 154.38 122.101 155.565 115.842 156.686C109.222 157.873 100.112 156.704 96.7857 156.12C93.598 155.561 91.4385 154.463 89.5225 153.286C87.5992 152.193 85.7241 151.434 84.1573 150.766C83.4828 150.449 83.0529 150.177 82.5479 149.639" stroke="white" stroke-width="8" stroke-linecap="round"/>
<path d="M92.4189 125.32C92.4189 125.313 92.4189 125.306 94.1792 125.299C95.9395 125.292 99.4601 125.285 103.18 125.32" stroke="white" stroke-width="8" stroke-linecap="round"/>
<path d="M569.196 73.716C569.269 71.8347 571.182 62.8494 575.12 53.4262C575.989 51.4933 576.615 50.1936 577.204 48.9045C577.793 47.6154 578.325 46.3762 579.874 43.9434" stroke="white" stroke-width="9" stroke-linecap="round"/>
<path d="M586.585 77.8709C586.537 77.8709 586.489 77.8709 592.038 72.1272C597.587 66.3834 608.735 54.8958 620.841 42.9004" stroke="white" stroke-width="9" stroke-linecap="round"/>
<path d="M601.882 86.6504H626.4" stroke="white" stroke-width="9" stroke-linecap="round"/>
</svg>
