<svg width="148" height="42" viewBox="0 0 148 42" fill="none" xmlns="http://www.w3.org/2000/svg">
<path d="M4.00098 35.2277C4.8676 33.3334 8.79701 27.6073 15.3924 22.7206C23.4921 16.7193 31.6717 16.1274 39.4276 15.0389C54.1965 12.9661 59.3061 17.2996 62.4069 17.5229C66.2036 17.7964 67.9436 11.5634 70.9433 9.63061C73.4418 8.0207 76.8974 8.03 80.6708 8.48262C88.7555 9.45241 94.695 17.7387 99.3316 24.5099C100.324 25.9588 100.239 27.4612 99.9221 28.7085C99.6051 29.9558 98.7754 31.0609 97.4318 31.6579C94.4689 32.9745 91.0446 31.647 88.3819 30.8777C83.0064 29.3249 78.2957 37.01 70.7424 37.5926C67.8959 36.3929 65.7401 34.6246 64.2305 32.4852C63.6984 31.2646 63.6413 29.7698 63.5825 28.2298" stroke="#1970D1" stroke-width="8" stroke-linecap="round"/>
<path d="M92.8457 10.2037C95.0791 9.7351 102.289 7.4603 118.5 4.11728C125.561 3.57221 131.418 4.96619 136.299 7.48557C138.335 8.61096 139.475 9.42552 143.531 12.6313" stroke="#1970D1" stroke-width="8" stroke-linecap="round"/>
<path d="M75.3133 19.5938H75.1504" stroke="#1970D1" stroke-width="8" stroke-linecap="round"/>
</svg>
