<svg width="127" height="133" viewBox="0 0 127 133" fill="none" xmlns="http://www.w3.org/2000/svg">
<path d="M88.2958 88.4983C88.2958 88.4983 92.9896 83.651 99.499 69.5786C107.632 51.9959 107.131 44.5989 105.798 39.7806C105.296 37.97 104.016 36.8545 102.821 36.114C100.498 34.6754 96.5799 38.7224 92.6733 41.9771C89.6921 44.4608 88.355 49.925 87.1966 51.4312C82.8847 57.0372 89.6939 38.3229 88.2958 29.6508C87.8797 27.0699 87.0583 25.7671 85.982 24.6736C84.87 23.5439 82.9587 22.8551 81.0121 22.1479C79.3779 21.5542 77.7724 22.1102 76.3287 22.6883C72.5672 24.1944 70.3234 28.4533 68.2939 31.9417C65.9649 35.9447 64.9385 39.5025 64.8969 40.0346C64.5781 44.1107 66.5898 31.2145 65.8307 25.3144C65.4793 22.5833 64.0773 20.6156 62.8664 19.1485C61.8171 17.8772 60.1973 17.5178 58.7396 17.4015C55.4976 17.1427 53.1883 20.3752 49.871 24.2096C46.6403 27.9438 45.3308 33.3173 45.2833 33.4047C42.6068 38.3263 45.3354 23.9681 43.4828 19.8322C42.7168 18.1221 40.8921 17.2 39.0896 16.6217C35.9156 15.6033 32.4981 21.4252 29.5342 25.2252C26.9433 28.5469 13.5028 58.8544 11.7664 64.2463" stroke="white" stroke-width="9" stroke-linecap="round"/>
<path d="M41.3163 110.674C40.6333 110.473 31.8297 106.477 27.7683 103.983C23.1641 101.155 22.561 99.189 21.1106 97.3907C18.7754 94.4951 17.6045 92.6148 16.4009 90.6321C13.5132 85.8754 12.4468 80.6095 11.7889 77.9562C11.4057 75.6132 10.8317 70.5216 11.3756 67.8663" stroke="white" stroke-width="9" stroke-linecap="round"/>
<path d="M51.2291 83.7082C49.9455 81.6197 46.1903 75.0072 44.8833 72.2948C44.4155 71.3819 43.6166 69.8192 42.8539 68.4796C42.0913 67.1399 41.389 66.0706 40.5364 64.8887" stroke="white" stroke-width="9" stroke-linecap="round"/>
<path d="M79.4502 89.0003C83.4184 89.0003 93.7524 89.7794 97.0886 91.1702C98.7805 91.8756 99.98 93.1254 100.841 94.0839C102.37 95.7845 102.103 99.0809 101.126 102.519C100.348 105.254 97.3155 107.572 93.5757 110.466C88.5168 114.38 82.101 115.565 75.8423 116.687C69.2219 117.873 60.1115 116.704 56.7857 116.12C53.5979 115.561 51.4384 114.464 49.5225 113.286C47.5991 112.194 45.724 111.434 44.1573 110.766C43.4827 110.449 43.0528 110.178 42.5478 109.639" stroke="white" stroke-width="8" stroke-linecap="round"/>
<path d="M52.4189 85.3205C52.4189 85.3134 52.4189 85.3063 54.1792 85.2991C55.9394 85.292 59.46 85.2849 63.1804 85.3198" stroke="white" stroke-width="8" stroke-linecap="round"/>
</svg>
