<svg width="382" height="94" viewBox="0 0 382 94" fill="none" xmlns="http://www.w3.org/2000/svg">
<path d="M23.0395 73.8239C17.4715 73.8239 12.6075 72.5119 8.44752 69.8879C4.35152 67.1999 1.53552 63.5839 -0.00047648 59.0399L9.40752 54.5279C10.7515 57.4719 12.6075 59.7759 14.9755 61.4399C17.4075 63.1039 20.0955 63.9359 23.0395 63.9359C25.3435 63.9359 27.1675 63.4239 28.5115 62.3999C29.8555 61.3759 30.5275 60.0319 30.5275 58.3679C30.5275 57.3439 30.2395 56.5119 29.6635 55.8719C29.1515 55.1679 28.4155 54.5919 27.4555 54.1439C26.5595 53.6319 25.5675 53.2159 24.4795 52.8959L15.9355 50.4959C11.5195 49.2159 8.15952 47.2639 5.85552 44.6399C3.61552 42.0159 2.49552 38.9119 2.49552 35.3279C2.49552 32.1279 3.29552 29.3439 4.89552 26.9759C6.55952 24.5439 8.83152 22.6559 11.7115 21.3119C14.6555 19.9679 18.0155 19.2959 21.7915 19.2959C26.7195 19.2959 31.0715 20.4799 34.8475 22.8479C38.6235 25.2159 41.3115 28.5439 42.9115 32.8319L33.3115 37.3439C32.4155 34.9759 30.9115 33.0879 28.7995 31.6799C26.6875 30.2719 24.3195 29.5679 21.6955 29.5679C19.5835 29.5679 17.9195 30.0479 16.7035 31.0079C15.4875 31.9679 14.8795 33.2159 14.8795 34.7519C14.8795 35.7119 15.1355 36.5439 15.6475 37.2479C16.1595 37.9519 16.8635 38.5279 17.7595 38.9759C18.7195 39.4239 19.8075 39.8399 21.0235 40.2239L29.3755 42.7199C33.6635 43.9999 36.9595 45.9199 39.2635 48.4799C41.6315 51.0399 42.8155 54.1759 42.8155 57.8879C42.8155 61.0239 41.9835 63.8079 40.3195 66.2399C38.6555 68.6079 36.3515 70.4639 33.4075 71.8079C30.4635 73.1519 27.0075 73.8239 23.0395 73.8239ZM68.32 73.8239C64.672 73.8239 61.504 73.2159 58.816 71.9999C56.128 70.7839 54.048 69.0559 52.576 66.8159C51.104 64.5119 50.368 61.8559 50.368 58.8479C50.368 55.9679 51.008 53.4079 52.288 51.1679C53.568 48.8639 55.552 46.9439 58.24 45.4079C60.928 43.8719 64.32 42.7839 68.416 42.1439L85.504 39.3599V48.9599L70.816 51.4559C68.32 51.9039 66.464 52.7039 65.248 53.8559C64.032 55.0079 63.424 56.5119 63.424 58.3679C63.424 60.1599 64.096 61.5999 65.44 62.6879C66.848 63.7119 68.576 64.2239 70.624 64.2239C73.248 64.2239 75.552 63.6799 77.536 62.5919C79.584 61.4399 81.152 59.8719 82.24 57.8879C83.392 55.9039 83.968 53.7279 83.968 51.3599V37.9199C83.968 35.6799 83.072 33.8239 81.28 32.3519C79.552 30.8159 77.248 30.0479 74.368 30.0479C71.68 30.0479 69.28 30.7839 67.168 32.2559C65.12 33.6639 63.616 35.5519 62.656 37.9199L52.384 32.9279C53.408 30.1759 55.008 27.8079 57.184 25.8239C59.424 23.7759 62.048 22.1759 65.056 21.0239C68.064 19.8719 71.328 19.2959 74.848 19.2959C79.136 19.2959 82.912 20.0959 86.176 21.6959C89.44 23.2319 91.968 25.4079 93.76 28.2239C95.616 30.9759 96.544 34.2079 96.544 37.9199V72.6719H84.64V63.7439L87.328 63.5519C85.984 65.7919 84.384 67.6799 82.528 69.2159C80.672 70.6879 78.56 71.8399 76.192 72.6719C73.824 73.4399 71.2 73.8239 68.32 73.8239ZM114.504 93.7919C113.096 93.7919 111.72 93.6639 110.376 93.4079C109.032 93.2159 107.816 92.8319 106.728 92.2559V81.7919C107.56 81.9839 108.552 82.1759 109.704 82.3679C110.92 82.5599 112.04 82.6559 113.064 82.6559C115.944 82.6559 118.024 81.9839 119.304 80.6399C120.648 79.3599 121.832 77.6319 122.856 75.4559L126.312 67.3919L126.12 77.9519L103.368 20.4479H116.904L132.84 62.8799H128.04L143.88 20.4479H157.512L134.76 77.9519C133.416 81.2799 131.784 84.1279 129.864 86.4959C127.944 88.8639 125.704 90.6559 123.144 91.8719C120.648 93.1519 117.768 93.7919 114.504 93.7919ZM164.418 72.6719V-0.000127792H176.994V30.7199L175.266 28.8959C176.482 25.7599 178.466 23.3919 181.218 21.7919C184.034 20.1279 187.298 19.2959 191.01 19.2959C194.85 19.2959 198.242 20.1279 201.186 21.7919C204.194 23.4559 206.53 25.7919 208.194 28.7999C209.858 31.7439 210.69 35.1679 210.69 39.0719V72.6719H198.114V42.0479C198.114 39.7439 197.666 37.7599 196.77 36.0959C195.874 34.4319 194.626 33.1519 193.026 32.2559C191.49 31.2959 189.666 30.8159 187.554 30.8159C185.506 30.8159 183.682 31.2959 182.082 32.2559C180.482 33.1519 179.234 34.4319 178.338 36.0959C177.442 37.7599 176.994 39.7439 176.994 42.0479V72.6719H164.418ZM246.092 73.8239C240.716 73.8239 236.012 72.6079 231.98 70.1759C227.948 67.7439 224.812 64.4479 222.572 60.2879C220.332 56.1279 219.212 51.5199 219.212 46.4639C219.212 41.2159 220.332 36.5759 222.572 32.5439C224.876 28.4479 227.98 25.2159 231.884 22.8479C235.852 20.4799 240.268 19.2959 245.132 19.2959C249.228 19.2959 252.812 19.9679 255.884 21.3119C259.02 22.6559 261.676 24.5119 263.852 26.8799C266.028 29.2479 267.692 31.9679 268.844 35.0399C269.996 38.0479 270.572 41.3119 270.572 44.8319C270.572 45.7279 270.508 46.6559 270.38 47.6159C270.316 48.5759 270.156 49.4079 269.9 50.1119H229.58V40.5119H262.796L256.844 45.0239C257.42 42.0799 257.26 39.4559 256.364 37.1519C255.532 34.8479 254.124 33.0239 252.14 31.6799C250.22 30.3359 247.884 29.6639 245.132 29.6639C242.508 29.6639 240.172 30.3359 238.124 31.6799C236.076 32.9599 234.508 34.8799 233.42 37.4399C232.396 39.9359 232.012 42.9759 232.268 46.5599C232.012 49.7599 232.428 52.6079 233.516 55.1039C234.668 57.5359 236.332 59.4239 238.508 60.7679C240.748 62.1119 243.308 62.7839 246.188 62.7839C249.068 62.7839 251.5 62.1759 253.484 60.9599C255.532 59.7439 257.132 58.1119 258.284 56.0639L268.46 61.0559C267.436 63.5519 265.836 65.7599 263.66 67.6799C261.484 69.5999 258.892 71.1039 255.884 72.1919C252.94 73.2799 249.676 73.8239 246.092 73.8239ZM280.105 72.6719V-0.000127792H292.681V72.6719H280.105ZM304.293 72.6719V-0.000127792H316.869V72.6719H304.293ZM354.016 73.8239C348.896 73.8239 344.224 72.6399 340 70.2719C335.84 67.9039 332.512 64.6719 330.016 60.5759C327.584 56.4799 326.368 51.8079 326.368 46.5599C326.368 41.3119 327.584 36.6399 330.016 32.5439C332.512 28.4479 335.84 25.2159 340 22.8479C344.16 20.4799 348.832 19.2959 354.016 19.2959C359.136 19.2959 363.776 20.4799 367.936 22.8479C372.096 25.2159 375.392 28.4479 377.824 32.5439C380.32 36.5759 381.568 41.2479 381.568 46.5599C381.568 51.8079 380.32 56.4799 377.824 60.5759C375.328 64.6719 372 67.9039 367.84 70.2719C363.68 72.6399 359.072 73.8239 354.016 73.8239ZM354.016 62.3039C356.832 62.3039 359.296 61.6319 361.408 60.2879C363.584 58.9439 365.28 57.0879 366.496 54.7199C367.776 52.2879 368.416 49.5679 368.416 46.5599C368.416 43.4879 367.776 40.7999 366.496 38.4959C365.28 36.1279 363.584 34.2719 361.408 32.9279C359.296 31.5199 356.832 30.8159 354.016 30.8159C351.136 30.8159 348.608 31.5199 346.432 32.9279C344.256 34.2719 342.528 36.1279 341.248 38.4959C340.032 40.7999 339.424 43.4879 339.424 46.5599C339.424 49.5679 340.032 52.2879 341.248 54.7199C342.528 57.0879 344.256 58.9439 346.432 60.2879C348.608 61.6319 351.136 62.3039 354.016 62.3039Z" fill="#1970D1"/>
</svg>
