<svg width="382" height="94" viewBox="0 0 382 94" fill="none" xmlns="http://www.w3.org/2000/svg">
<path d="M354.017 73.8249C348.897 73.8249 344.225 72.6409 340.001 70.2729C335.841 67.9049 332.513 64.6729 330.017 60.5769C327.585 56.4809 326.369 51.8089 326.369 46.5609C326.369 41.3129 327.585 36.6409 330.017 32.5449C332.513 28.4489 335.841 25.2169 340.001 22.8489C344.161 20.4809 348.833 19.2969 354.017 19.2969C359.137 19.2969 363.777 20.4809 367.937 22.8489C372.097 25.2169 375.393 28.4489 377.825 32.5449C380.321 36.5769 381.569 41.2489 381.569 46.5609C381.569 51.8089 380.321 56.4809 377.825 60.5769C375.329 64.6729 372.001 67.9049 367.841 70.2729C363.681 72.6409 359.073 73.8249 354.017 73.8249ZM354.017 62.3049C356.833 62.3049 359.297 61.6329 361.409 60.2889C363.585 58.9449 365.281 57.0889 366.497 54.7209C367.777 52.2889 368.417 49.5689 368.417 46.5609C368.417 43.4889 367.777 40.8009 366.497 38.4969C365.281 36.1289 363.585 34.2729 361.409 32.9289C359.297 31.5209 356.833 30.8169 354.017 30.8169C351.137 30.8169 348.609 31.5209 346.433 32.9289C344.257 34.2729 342.529 36.1289 341.249 38.4969C340.033 40.8009 339.425 43.4889 339.425 46.5609C339.425 49.5689 340.033 52.2889 341.249 54.7209C342.529 57.0889 344.257 58.9449 346.433 60.2889C348.609 61.6329 351.137 62.3049 354.017 62.3049Z" fill="white"/>
<path d="M304.293 72.672V0H316.869V72.672H304.293Z" fill="white"/>
<path d="M280.105 72.672V0H292.681V72.672H280.105Z" fill="white"/>
<path d="M246.093 73.8249C240.717 73.8249 236.013 72.6089 231.981 70.1769C227.949 67.7449 224.813 64.4489 222.573 60.2889C220.333 56.1289 219.213 51.5209 219.213 46.4649C219.213 41.2169 220.333 36.5769 222.573 32.5449C224.877 28.4489 227.981 25.2169 231.885 22.8489C235.853 20.4809 240.269 19.2969 245.133 19.2969C249.229 19.2969 252.813 19.9689 255.885 21.3129C259.021 22.6569 261.677 24.5129 263.853 26.8809C266.029 29.2489 267.693 31.9689 268.845 35.0409C269.997 38.0489 270.573 41.3129 270.573 44.8329C270.573 45.7289 270.509 46.6569 270.381 47.6169C270.317 48.5769 270.157 49.4089 269.901 50.1129H229.581V40.5129H262.797L256.845 45.0249C257.421 42.0809 257.261 39.4569 256.365 37.1529C255.533 34.8489 254.125 33.0249 252.141 31.6809C250.221 30.3369 247.885 29.6649 245.133 29.6649C242.509 29.6649 240.173 30.3369 238.125 31.6809C236.077 32.9609 234.509 34.8809 233.421 37.4409C232.397 39.9369 232.013 42.9769 232.269 46.5609C232.013 49.7609 232.429 52.6089 233.517 55.1049C234.669 57.5369 236.333 59.4249 238.509 60.7689C240.749 62.1129 243.309 62.7849 246.189 62.7849C249.069 62.7849 251.501 62.1769 253.485 60.9609C255.533 59.7449 257.133 58.1129 258.285 56.0649L268.461 61.0569C267.437 63.5529 265.837 65.7609 263.661 67.6809C261.485 69.6009 258.893 71.1049 255.885 72.1929C252.941 73.2809 249.677 73.8249 246.093 73.8249Z" fill="white"/>
<path d="M164.418 72.672V0H176.994V30.72L175.266 28.896C176.482 25.76 178.466 23.392 181.218 21.792C184.034 20.128 187.298 19.296 191.01 19.296C194.85 19.296 198.242 20.128 201.186 21.792C204.194 23.456 206.53 25.792 208.194 28.8C209.858 31.744 210.69 35.168 210.69 39.072V72.672H198.114V42.048C198.114 39.744 197.666 37.76 196.77 36.096C195.874 34.432 194.626 33.152 193.026 32.256C191.49 31.296 189.666 30.816 187.554 30.816C185.506 30.816 183.682 31.296 182.082 32.256C180.482 33.152 179.234 34.432 178.338 36.096C177.442 37.76 176.994 39.744 176.994 42.048V72.672H164.418Z" fill="white"/>
<path d="M114.504 93.7913C113.096 93.7913 111.72 93.6633 110.376 93.4073C109.032 93.2153 107.816 92.8313 106.728 92.2553V81.7913C107.56 81.9833 108.552 82.1753 109.704 82.3673C110.92 82.5593 112.04 82.6553 113.064 82.6553C115.944 82.6553 118.024 81.9833 119.304 80.6393C120.648 79.3593 121.832 77.6313 122.856 75.4553L126.312 67.3913L126.12 77.9513L103.368 20.4473H116.904L132.84 62.8793H128.04L143.88 20.4473H157.512L134.76 77.9513C133.416 81.2793 131.784 84.1273 129.864 86.4953C127.944 88.8633 125.704 90.6553 123.144 91.8713C120.648 93.1513 117.768 93.7913 114.504 93.7913Z" fill="white"/>
<path d="M68.3211 73.8249C64.6731 73.8249 61.5051 73.2169 58.8171 72.0009C56.1291 70.7849 54.0491 69.0569 52.5771 66.8169C51.1051 64.5129 50.3691 61.8569 50.3691 58.8489C50.3691 55.9689 51.0091 53.4089 52.2891 51.1689C53.5691 48.8649 55.5531 46.9449 58.2411 45.4089C60.9291 43.8729 64.3211 42.7849 68.4171 42.1449L85.5051 39.3609V48.9609L70.8171 51.4569C68.3211 51.9049 66.4651 52.7049 65.2491 53.8569C64.0331 55.0089 63.4251 56.5129 63.4251 58.3689C63.4251 60.1609 64.0971 61.6009 65.4411 62.6889C66.8491 63.7129 68.5771 64.2249 70.6251 64.2249C73.2491 64.2249 75.5531 63.6809 77.5371 62.5929C79.5851 61.4409 81.1531 59.8729 82.2411 57.8889C83.3931 55.9049 83.9691 53.7289 83.9691 51.3609V37.9209C83.9691 35.6809 83.0731 33.8249 81.2811 32.3529C79.5531 30.8169 77.2491 30.0489 74.3691 30.0489C71.6811 30.0489 69.2811 30.7849 67.1691 32.2569C65.1211 33.6649 63.6171 35.5529 62.6571 37.9209L52.3851 32.9289C53.4091 30.1769 55.0091 27.8089 57.1851 25.8249C59.4251 23.7769 62.0491 22.1769 65.0571 21.0249C68.0651 19.8729 71.3291 19.2969 74.8491 19.2969C79.1371 19.2969 82.9131 20.0969 86.1771 21.6969C89.4411 23.2329 91.9691 25.4089 93.7611 28.2249C95.6171 30.9769 96.5451 34.2089 96.5451 37.9209V72.6729H84.6411V63.7449L87.3291 63.5529C85.9851 65.7929 84.3851 67.6809 82.5291 69.2169C80.6731 70.6889 78.5611 71.8409 76.1931 72.6729C73.8251 73.4409 71.2011 73.8249 68.3211 73.8249Z" fill="white"/>
<path d="M23.04 73.8249C17.472 73.8249 12.608 72.5129 8.448 69.8889C4.352 67.2009 1.536 63.5849 0 59.0409L9.408 54.5289C10.752 57.4729 12.608 59.7769 14.976 61.4409C17.408 63.1049 20.096 63.9369 23.04 63.9369C25.344 63.9369 27.168 63.4249 28.512 62.4009C29.856 61.3769 30.528 60.0329 30.528 58.3689C30.528 57.3449 30.24 56.5129 29.664 55.8729C29.152 55.1689 28.416 54.5929 27.456 54.1449C26.56 53.6329 25.568 53.2169 24.48 52.8969L15.936 50.4969C11.52 49.2169 8.16 47.2649 5.856 44.6409C3.616 42.0169 2.496 38.9129 2.496 35.3289C2.496 32.1289 3.296 29.3449 4.896 26.9769C6.56 24.5449 8.832 22.6569 11.712 21.3129C14.656 19.9689 18.016 19.2969 21.792 19.2969C26.72 19.2969 31.072 20.4809 34.848 22.8489C38.624 25.2169 41.312 28.5449 42.912 32.8329L33.312 37.3449C32.416 34.9769 30.912 33.0889 28.8 31.6809C26.688 30.2729 24.32 29.5689 21.696 29.5689C19.584 29.5689 17.92 30.0489 16.704 31.0089C15.488 31.9689 14.88 33.2169 14.88 34.7529C14.88 35.7129 15.136 36.5449 15.648 37.2489C16.16 37.9529 16.864 38.5289 17.76 38.9769C18.72 39.4249 19.808 39.8409 21.024 40.2249L29.376 42.7209C33.664 44.0009 36.96 45.9209 39.264 48.4809C41.632 51.0409 42.816 54.1769 42.816 57.8889C42.816 61.0249 41.984 63.8089 40.32 66.2409C38.656 68.6089 36.352 70.4649 33.408 71.8089C30.464 73.1529 27.008 73.8249 23.04 73.8249Z" fill="white"/>
</svg>
